<?xml version="1.0" encoding="utf-8"?>
<!-- Generator: Adobe Illustrator 20.0.0, SVG Export Plug-In . SVG Version: 6.00 Build 0)  -->
<!DOCTYPE svg PUBLIC "-//W3C//DTD SVG 1.1//EN" "http://www.w3.org/Graphics/SVG/1.1/DTD/svg11.dtd">
<svg version="1.1" xmlns="http://www.w3.org/2000/svg" xmlns:xlink="http://www.w3.org/1999/xlink" x="0px" y="0px"
	 viewBox="0 0 364.2 348.2" enable-background="new 0 0 364.2 348.2" xml:space="preserve">
<g id="Layer_4">
	<path opacity="0.71" fill="#FFFFFF" d="M1265.6-182.6c0,0,76.2,15.3,102,15.4c27.3,0.1,108-15.4,108-15.4s-59,25.7-76.5,29.4
		c-37.1,8-133-14.1-133-14.1"/>
	<g id="B0dhgj_1_">
		
			<image overflow="visible" width="800" height="600" id="B0dhgj_2_" xlink:href="F02E784ED25D245A.png"  transform="matrix(1 0 0 1 4239.0439 261.5081)">
		</image>
	</g>
	
		<ellipse fill="#FFFFFF" stroke="#FFFFFF" stroke-width="9.5961" stroke-linecap="round" stroke-miterlimit="10" cx="3501.6" cy="683" rx="109.7" ry="39.7"/>
	<g>
		<path fill="#FFFFFF" stroke="#131314" stroke-width="6.0039" stroke-linecap="round" stroke-miterlimit="10" d="M3517.8,848.1
			h-76.2c-24.4,0-44.4-20-44.4-44.4V744c0-24.4,20-44.4,44.4-44.4h76.2c24.4,0,44.4,20,44.4,44.4v59.8
			C3562.2,828.2,3542.2,848.1,3517.8,848.1z"/>
		
			<ellipse fill="none" stroke="#131314" stroke-width="7.4282" stroke-miterlimit="10" cx="3483.4" cy="567.7" rx="166" ry="157.3"/>
		<ellipse fill="#FFFFFF" cx="3481" cy="713.5" rx="74" ry="80.4"/>
		<path fill="#FFFFFF" stroke="#131314" stroke-width="7.5502" stroke-linecap="round" stroke-miterlimit="10" d="M3347.5,590.7
			c0,0,26.9,15.4,26.9,41.1s-69.9,67.8-22.5,104.6c55,42.7,56.6-5.8,77,0c15.9,4.5,7.3,32.7,0.7,63.6c-5.2,23.9-6.7-63.6-6.7-63.6"
			/>
		<path fill="#FFFFFF" stroke="#131314" stroke-width="7.5502" stroke-linecap="round" stroke-miterlimit="10" d="M3614.9,590.7
			c0,0-26.9,15.4-26.9,41.1s69.9,67.8,22.5,104.6c-55,42.7-56.6-5.8-77,0c-15.9,4.5-7.3,32.7-0.7,63.6c5.2,23.9,6.7-63.6,6.7-63.6"
			/>
		<ellipse transform="matrix(0.4205 -0.9073 0.9073 0.4205 1377.064 3550.2915)" cx="3467.9" cy="697.1" rx="19.1" ry="5.9"/>
		<ellipse transform="matrix(0.9073 -0.4205 0.4205 0.9073 31.3689 1536.4619)" cx="3499.9" cy="697.1" rx="5.9" ry="19.1"/>
		<g>
			
				<line fill="none" stroke="#131314" stroke-width="9" stroke-linecap="round" stroke-miterlimit="10" x1="3440.8" y1="774.6" x2="3521.8" y2="774.6"/>
			
				<line fill="none" stroke="#131314" stroke-width="9" stroke-linecap="round" stroke-miterlimit="10" x1="3449.3" y1="758.1" x2="3449.3" y2="791.1"/>
			
				<line fill="none" stroke="#131314" stroke-width="9" stroke-linecap="round" stroke-miterlimit="10" x1="3476.3" y1="758.1" x2="3476.3" y2="791.1"/>
			
				<line fill="none" stroke="#131314" stroke-width="9" stroke-linecap="round" stroke-miterlimit="10" x1="3503.3" y1="758.1" x2="3503.3" y2="791.1"/>
		</g>
		<g>
			<path fill="none" stroke="#000000" stroke-width="9" stroke-miterlimit="10" d="M3464.5,645.9c-6,23.9-26.1,39.5-45.1,34.8
				c-18.9-4.7-29.4-27.9-23.5-51.9c2.6-10.4,4-25.5,10.6-31.7c8.7-8.2,23.7-5.8,34.4-3.1c3.9,1,12.4,11.1,15.5,13.5
				C3468.5,616.7,3469.3,626.9,3464.5,645.9z"/>
			<path d="M3463.6,631.8c0,22.7-14.6,41.1-32.7,41.1s-32.7-18.4-32.7-41.1c0-12.7,4.6-24.1,11.8-31.6c5.7-5.9,12.9-9.5,20.8-9.5
				c8.1,0,15.5,3.7,21.3,9.9C3459.2,608.1,3463.6,619.3,3463.6,631.8z"/>
		</g>
		<g>
			<path fill="none" stroke="#000000" stroke-width="9" stroke-miterlimit="10" d="M3499,646.2c6,23.9,26.1,39.5,45.1,34.8
				c18.9-4.7,29.4-27.9,23.5-51.9c-2.6-10.4-4-25.5-10.6-31.7c-8.7-8.2-23.7-5.8-34.4-3.1c-3.9,1-12.4,11.1-15.5,13.5
				C3495,617.1,3494.2,627.3,3499,646.2z"/>
			<path d="M3499.9,632.1c0,22.7,14.6,41.1,32.7,41.1s32.7-18.4,32.7-41.1c0-12.7-4.6-24.1-11.8-31.6c-5.7-5.9-12.9-9.5-20.8-9.5
				c-8.1,0-15.5,3.7-21.3,9.9C3504.3,608.5,3499.9,619.7,3499.9,632.1z"/>
		</g>
		<g>
			<path fill="none" stroke="#131314" stroke-width="9.6505" stroke-linecap="round" stroke-miterlimit="10" d="M3404.1,555.5
				c0,0,46-23.7,77.5,12.2"/>
			<path fill="none" stroke="#131314" stroke-width="9.6505" stroke-linecap="round" stroke-miterlimit="10" d="M3560.9,555.5
				c0,0-60-18.6-77.5,12.2"/>
		</g>
	</g>
	<g opacity="0.2">
		<path fill="#FFFFFF" stroke="#415E7D" stroke-width="9" stroke-linecap="round" stroke-miterlimit="10" d="M1698.5,207.2
			l-60.1-11.3c-24-4.5-39.9-27.8-35.4-51.8l8.6-45.5c4.5-24,27.8-39.9,51.8-35.4l60.1,11.3c24,4.5,39.9,27.8,35.4,51.8l-8.6,45.5
			C1745.8,195.8,1722.5,211.7,1698.5,207.2z"/>
		
			<ellipse transform="matrix(0.1849 -0.9828 0.9828 0.1849 1448.6387 1649.743)" fill="none" stroke="#415E7D" stroke-width="9" stroke-miterlimit="10" cx="1718.9" cy="-48.4" rx="143" ry="150.9"/>
		
			<ellipse transform="matrix(0.1849 -0.9828 0.9828 0.1849 1299.337 1729.4747)" fill="#FFFFFF" cx="1692.3" cy="81.4" rx="73.1" ry="67.3"/>
		<path fill="#FFFFFF" stroke="#415E7D" stroke-width="9" stroke-linecap="round" stroke-miterlimit="10" d="M1593.6-50.7
			c0,0,21.5,18.2,17.2,41.2c-4.3,23-73.8,48.8-37.7,89.6c42,47.4,51.5,4.3,68.8,12.9c13.4,6.7,1.1,30.4-10.1,56.9
			c-8.6,20.5,4.8-58,4.8-58"/>
		<path fill="#FFFFFF" stroke="#415E7D" stroke-width="9" stroke-linecap="round" stroke-miterlimit="10" d="M1832.5-5.8
			c0,0-26.6,9.2-31,32.2c-4.3,23,51,72.3,2.6,97.2c-56.4,28.9-49.6-14.7-68.8-12.9c-15,1.4-12,27.9-11.3,56.7
			c0.6,22.2,16.6-55.7,16.6-55.7"/>
		
			<ellipse transform="matrix(0.581 -0.8139 0.8139 0.581 652.6541 1397.0549)" fill="#415E7D" cx="1683.3" cy="64.6" rx="17.4" ry="5.4"/>
		
			<ellipse transform="matrix(0.9694 -0.2455 0.2455 0.9694 35.2221 422.4493)" fill="#415E7D" cx="1711.8" cy="70" rx="5.4" ry="17.4"/>
		<g>
			
				<line fill="none" stroke="#415E7D" stroke-width="8.1828" stroke-linecap="round" stroke-miterlimit="10" x1="1646.1" y1="129.3" x2="1718.5" y2="143"/>
			
				<line fill="none" stroke="#415E7D" stroke-width="8.1828" stroke-linecap="round" stroke-miterlimit="10" x1="1656.4" y1="116" x2="1650.9" y2="145.5"/>
			
				<line fill="none" stroke="#415E7D" stroke-width="8.1828" stroke-linecap="round" stroke-miterlimit="10" x1="1680.6" y1="120.6" x2="1675" y2="150"/>
			
				<line fill="none" stroke="#415E7D" stroke-width="8.1828" stroke-linecap="round" stroke-miterlimit="10" x1="1704.7" y1="125.1" x2="1699.1" y2="154.6"/>
		</g>
		<g>
			<path fill="none" stroke="#415E7D" stroke-width="8.1828" stroke-miterlimit="10" d="M1688.9,18.2c-9.4,20.4-30,30.9-46.1,23.5
				c-16.1-7.4-21.6-29.9-12.3-50.3c4.1-8.8,7.8-22.1,14.8-26.6c9.2-5.9,22.2-1.2,31.3,3c3.3,1.5,9.2,12,11.6,14.7
				C1697.4-7.1,1696.3,2.1,1688.9,18.2z"/>
			<path fill="#415E7D" d="M1690.4,5.5c-3.8,20.3-20,34.2-36.1,31.2s-26.1-21.9-22.3-42.2c2.1-11.4,8.2-20.8,15.9-26.3
				c6-4.3,13.1-6.3,20.2-4.9c7.3,1.4,13.3,5.9,17.3,12.4C1690.4-16.4,1692.5-5.7,1690.4,5.5z"/>
		</g>
		<g>
			<path fill="none" stroke="#415E7D" stroke-width="8.1828" stroke-miterlimit="10" d="M1719.6,24.4c1.3,22.4,16.7,39.7,34.4,38.7
				c17.7-1,31-20,29.7-42.4c-0.6-9.7,0.7-23.4-4.2-30.1c-6.4-8.8-20.2-9.1-30.3-8.5c-3.7,0.2-12.9,7.9-16.2,9.5
				C1720.9-2.3,1718.6,6.6,1719.6,24.4z"/>
			<path fill="#415E7D" d="M1722.8,11.9c-3.8,20.3,6.2,39.2,22.3,42.2c16.1,3,32.3-10.9,36.1-31.2c2.1-11.4-0.1-22.3-5.2-30.3
				c-4.1-6.2-10-10.6-17-12c-7.3-1.4-14.5,0.7-20.7,5.3C1730.7-8.5,1724.9,0.8,1722.8,11.9z"/>
		</g>
		<g>
			<path fill="none" stroke="#415E7D" stroke-width="8.7742" stroke-linecap="round" stroke-miterlimit="10" d="M1650-72.7
				c0,0,45.1-13.4,67.2,23.9"/>
			<path fill="none" stroke="#415E7D" stroke-width="8.7742" stroke-linecap="round" stroke-miterlimit="10" d="M1790.2-46.3
				c0,0-50.5-26.7-71.3-2.2"/>
		</g>
	</g>
	
		<line fill="none" stroke="#415E7D" stroke-width="6" stroke-linecap="round" stroke-miterlimit="10" x1="1759.6" y1="600.4" x2="1759.6" y2="600.4"/>
</g>
<g id="Layer_1">
	<g id="Layer_3">
		<rect x="1287.9" y="-135" fill="#EEEFF4" width="165.3" height="296.7"/>
		<path fill="#FFFFFF" d="M1322.8,106.1L1322.8,106.1c-9.7,0-17.6-7.9-17.6-17.6V-61c0-9.7,7.9-17.6,17.6-17.6l0,0
			c9.7,0,17.6,7.9,17.6,17.6V88.5C1340.4,98.2,1332.5,106.1,1322.8,106.1z"/>
		<circle fill="#FFFFFF" cx="1411.6" cy="-41.6" r="12.5"/>
	</g>
	<path fill="#EEEFF4" d="M1514.2,194.9c0,0-304.4-52-307.7,138.3l-63.5,38.2c0,0-9.1-142.1,129.8-206.1l180.4-3.5"/>
	<path fill="#DB4242" d="M1375,371.3c0,0-104.7-94.5-195.2-49.6c-75.9,37.6-7.2,193.7,72.2,243.2c0,0,106.9,64.1,201.2,18.5
		c0,0,190.1-90.3,136.2-250.4c0,0,0.9-106.9-148.2-18.8"/>
	<path fill="none" stroke="#891218" stroke-width="7.7825" stroke-miterlimit="10" d="M1375,371.3
		c-104.8-96.8-211.7-67.2-227.4-11.3S1208.1,537.7,1375,371.3s214.5-62.4,214.5-62.4"/>
	<path fill="none" stroke="#415E7D" stroke-width="9" stroke-miterlimit="10" d="M1454,159.6C1454,159.6,1444.4,155.8,1454,159.6
		c84.4,33.3,144.1,115.5,144.1,211.8c0,125.7-101.9,227.5-227.5,227.5s-223-102-227.5-227.5c-6-164.8,144.1-211.8,144.1-211.8
		s20.7,1.6,33.6,2.1c24.2,0.8,49.8,0,49.8,0L1454,159.6"/>
	<g id="Vy9gqf_1_">
		
			<image overflow="visible" width="800" height="600" id="Vy9gqf_2_" xlink:href="F02E784ED25D245E.png"  transform="matrix(1 0 0 1 1993.9655 1041.4984)">
		</image>
	</g>
	<path fill="#E8A255" stroke="#415E7D" stroke-width="9" stroke-miterlimit="10" d="M1397.9-112h-52.2c-17,0-31.8-11.8-35.5-28.4
		l-24.5-109.4c-5.1-22.9,12.3-44.6,35.7-44.6h104.9c23.3,0,40.5,21.9,34.9,44.5l-26.7,109.1C1430.4-123.9,1415.3-112,1397.9-112z"/>
	<circle fill="#415E7D" cx="1324.1" cy="-240" r="5"/>
	<circle fill="#415E7D" cx="1355.4" cy="-198.2" r="5"/>
	<circle fill="#415E7D" cx="1381" cy="-230" r="5"/>
	<circle fill="#415E7D" cx="1416.1" cy="-167.3" r="5"/>
	<circle fill="#415E7D" cx="1427.1" cy="-272.4" r="5"/>
	<circle fill="#415E7D" cx="1345.4" cy="-148.2" r="5"/>
	<rect x="1287.9" y="-135" fill="none" stroke="#415E7D" stroke-width="9" stroke-miterlimit="10" width="165.3" height="296.7"/>
	<circle fill="#E05F5F" stroke="#891218" stroke-width="5" stroke-miterlimit="10" cx="1514.2" cy="363.3" r="15.1"/>
	<circle fill="#E05F5F" stroke="#891218" stroke-width="5" stroke-miterlimit="10" cx="1242" cy="348.2" r="15.1"/>
	<circle fill="#E05F5F" stroke="#891218" stroke-width="8.828" stroke-miterlimit="10" cx="1299.5" cy="515.9" r="26.6"/>
	<circle fill="#E05F5F" stroke="#891218" stroke-width="2.5" stroke-miterlimit="10" cx="1456.3" cy="385.9" r="7.5"/>
	<circle fill="#E05F5F" stroke="#891218" stroke-width="5" stroke-miterlimit="10" cx="1472.2" cy="458.6" r="19"/>
	
		<line fill="none" stroke="#415E7D" stroke-width="7" stroke-linecap="round" stroke-miterlimit="10" x1="1407.1" y1="276.9" x2="1429.2" y2="227.3"/>
	
		<line fill="none" stroke="#415E7D" stroke-width="6.4601" stroke-linecap="round" stroke-miterlimit="10" x1="1266.1" y1="203.5" x2="1288.2" y2="161.3"/>
	
		<line fill="none" stroke="#415E7D" stroke-width="6.4601" stroke-linecap="round" stroke-miterlimit="10" x1="1283.1" y1="203.5" x2="1305.2" y2="161.3"/>
	
		<line fill="none" stroke="#415E7D" stroke-width="6" stroke-linecap="round" stroke-miterlimit="10" x1="1000.9" y1="599.8" x2="1625.3" y2="598.9"/>
	<path fill="none" stroke="#415E7D" stroke-width="9" stroke-linecap="round" stroke-miterlimit="10" d="M1672.7,599.8"/>
	
		<line fill="none" stroke="#415E7D" stroke-width="6" stroke-linecap="round" stroke-miterlimit="10" x1="1661.8" y1="600.1" x2="1744.8" y2="600.1"/>
	
		<line fill="none" stroke="#415E7D" stroke-width="8" stroke-linecap="round" stroke-miterlimit="10" x1="1793.8" y1="600.1" x2="1949.8" y2="600.1"/>
	<circle fill="#415E7D" cx="958.9" cy="599.8" r="3.8"/>
	
		<ellipse transform="matrix(0.5 -0.866 0.866 0.5 347.8071 1227.7212)" opacity="0.43" fill="#FFFFFF" cx="1237.1" cy="312.7" rx="84.9" ry="52.5"/>
	<circle opacity="0.52" fill="#FFFFFF" cx="1214.2" cy="439.6" r="23"/>
	<path opacity="0.75" fill="#EEEFF4" d="M1471.3-135h-205.2c-13.2,0-23.9-10.8-23.9-23.9v0c0-13.2,10.8-23.9,23.9-23.9h205.2
		c13.2,0,23.9,10.8,23.9,23.9v0C1495.2-145.8,1484.4-135,1471.3-135z"/>
	<path fill="none" stroke="#415E7D" stroke-width="9" stroke-miterlimit="10" d="M1475.2-135h-209.3c-13.2,0-23.9-10.8-23.9-23.9v0
		c0-13.2,10.8-23.9,23.9-23.9h209.3c13.2,0,23.9,10.8,23.9,23.9v0C1499.1-145.8,1488.4-135,1475.2-135z"/>
	<circle fill="#415E7D" cx="-334.1" cy="618.8" r="3.8"/>
</g>
<g id="Layer_2">
	<path opacity="0.12" fill="#FFFFFF" d="M1441.3,314.2l86.8-34.3c0,0,35.9,160.3-13.8,209.5L1383,458.6c0,0,63.6-70.5,70.2-100.2
		C1474.7,262.1,1441.3,314.2,1441.3,314.2z"/>
	<g>
		<path opacity="0.71" fill="#FFFFFF" d="M116,65.9c0,0,24.1,4.8,32.2,4.9c8.6,0,34.2-4.9,34.2-4.9s-18.7,8.1-24.2,9.3
			c-11.7,2.5-42-4.4-42-4.4"/>
		<g opacity="0.2">
			<path fill="#FFFFFF" stroke="#415E7D" stroke-width="2.8453" stroke-linecap="round" stroke-miterlimit="10" d="M245.7,187.8
				l-4.6-0.9c-11.5-2.2-19.2-13.4-17-24.9l0,0c2.2-11.5,13.4-19.2,24.9-17l4.6,0.9c11.5,2.2,19.2,13.4,17,24.9l0,0
				C268.5,182.3,257.3,190,245.7,187.8z"/>
			
				<ellipse transform="matrix(0.1849 -0.9828 0.9828 0.1849 104.9313 343.1727)" fill="none" stroke="#415E7D" stroke-width="2.8453" stroke-miterlimit="10" cx="259.3" cy="108.3" rx="45.2" ry="47.7"/>
			
				<ellipse transform="matrix(0.1849 -0.9828 0.9828 0.1849 57.7312 368.379)" fill="#FFFFFF" cx="250.9" cy="149.4" rx="23.1" ry="21.3"/>
			<path fill="#FFFFFF" stroke="#415E7D" stroke-width="2.8453" stroke-linecap="round" stroke-miterlimit="10" d="M219.7,107.6
				c0,0,6.8,5.8,5.4,13c-1.4,7.3-23.3,15.4-11.9,28.3c13.3,15,16.3,1.4,21.8,4.1c4.2,2.1,0.3,9.6-3.2,18c-2.7,6.5,1.5-18.3,1.5-18.3
				"/>
			<path fill="#FFFFFF" stroke="#415E7D" stroke-width="2.8453" stroke-linecap="round" stroke-miterlimit="10" d="M295.3,121.8
				c0,0-8.4,2.9-9.8,10.2c-1.4,7.3,16.1,22.9,0.8,30.7c-17.8,9.1-15.7-4.7-21.8-4.1c-4.7,0.4-3.8,8.8-3.6,17.9
				c0.2,7,5.3-17.6,5.3-17.6"/>
			
				<ellipse transform="matrix(0.581 -0.8139 0.8139 0.581 -13.304 262.281)" fill="#415E7D" cx="248.1" cy="144.1" rx="5.5" ry="1.7"/>
			
				<ellipse transform="matrix(0.9694 -0.2455 0.2455 0.9694 -27.9176 67.594)" fill="#415E7D" cx="257.1" cy="145.8" rx="1.7" ry="5.5"/>
			<g>
				
					<line fill="none" stroke="#415E7D" stroke-width="2.5869" stroke-linecap="round" stroke-miterlimit="10" x1="236.3" y1="164.5" x2="259.2" y2="168.8"/>
				
					<line fill="none" stroke="#415E7D" stroke-width="2.5869" stroke-linecap="round" stroke-miterlimit="10" x1="239.6" y1="160.3" x2="237.9" y2="169.6"/>
				
					<line fill="none" stroke="#415E7D" stroke-width="2.5869" stroke-linecap="round" stroke-miterlimit="10" x1="247.2" y1="161.8" x2="245.5" y2="171.1"/>
				
					<line fill="none" stroke="#415E7D" stroke-width="2.5869" stroke-linecap="round" stroke-miterlimit="10" x1="254.9" y1="163.2" x2="253.1" y2="172.5"/>
			</g>
			<g>
				<path fill="none" stroke="#415E7D" stroke-width="2.5869" stroke-miterlimit="10" d="M249.9,129.4c-3,6.4-9.5,9.8-14.6,7.4
					c-5.1-2.3-6.8-9.5-3.9-15.9c1.3-2.8,2.5-7,4.7-8.4c2.9-1.8,7-0.4,9.9,1c1.1,0.5,2.9,3.8,3.7,4.6
					C252.5,121.4,252.2,124.3,249.9,129.4z"/>
				<path fill="#415E7D" d="M250.4,125.4c-1.2,6.4-6.3,10.8-11.4,9.9c-5.1-1-8.3-6.9-7-13.3c0.7-3.6,2.6-6.6,5-8.3
					c1.9-1.4,4.2-2,6.4-1.6c2.3,0.4,4.2,1.9,5.5,3.9C250.4,118.5,251,121.9,250.4,125.4z"/>
			</g>
			<g>
				<path fill="none" stroke="#415E7D" stroke-width="2.5869" stroke-miterlimit="10" d="M259.6,131.3c0.4,7.1,5.3,12.6,10.9,12.2
					s9.8-6.3,9.4-13.4c-0.2-3.1,0.2-7.4-1.3-9.5c-2-2.8-6.4-2.9-9.6-2.7c-1.2,0.1-4.1,2.5-5.1,3C260,122.9,259.3,125.7,259.6,131.3z
					"/>
				<path fill="#415E7D" d="M260.6,127.4c-1.2,6.4,1.9,12.4,7,13.3c5.1,1,10.2-3.5,11.4-9.9c0.7-3.6,0-7.1-1.7-9.6
					c-1.3-2-3.1-3.4-5.4-3.8c-2.3-0.4-4.6,0.2-6.5,1.7C263.1,121,261.3,123.9,260.6,127.4z"/>
			</g>
			<g>
				<path fill="none" stroke="#415E7D" stroke-width="2.7739" stroke-linecap="round" stroke-miterlimit="10" d="M237.6,100.7
					c0,0,14.3-4.3,21.3,7.6"/>
				<path fill="none" stroke="#415E7D" stroke-width="2.7739" stroke-linecap="round" stroke-miterlimit="10" d="M281.9,109
					c0,0-16-8.4-22.6-0.7"/>
			</g>
		</g>
		<rect x="123.1" y="81" fill="#EEEFF4" width="52.3" height="93.8"/>
		<path fill="#FFFFFF" d="M134.1,157.2L134.1,157.2c-3.1,0-5.6-2.5-5.6-5.6v-47.2c0-3.1,2.5-5.6,5.6-5.6h0c3.1,0,5.6,2.5,5.6,5.6
			v47.2C139.7,154.7,137.2,157.2,134.1,157.2z"/>
		<circle fill="#FFFFFF" cx="162.2" cy="110.5" r="4"/>
		<path fill="#EEEFF4" d="M194.7,185.2c0,0-96.2-16.4-97.3,43.7L77.3,241c0,0-2.9-44.9,41-65.2l57-1.1"/>
		<path fill="#DB4242" d="M150.6,241c0,0-33.1-29.9-61.7-15.7c-24,11.9-2.3,61.2,22.8,76.9c0,0,33.8,20.3,63.6,5.8
			c0,0,60.1-28.5,43.1-79.2c0,0,0.3-33.8-46.8-5.9"/>
		<path fill="none" stroke="#891218" stroke-width="2.4604" stroke-miterlimit="10" d="M150.6,241c-33.1-30.6-66.9-21.2-71.9-3.6
			S97.9,293.6,150.6,241s67.8-19.7,67.8-19.7"/>
		<path fill="none" stroke="#415E7D" stroke-width="2.8453" stroke-miterlimit="10" d="M175.6,174.1
			C175.6,174.1,172.6,172.9,175.6,174.1c26.7,10.5,45.6,36.5,45.6,66.9c0,39.7-32.2,71.9-71.9,71.9S78.7,280.7,77.3,241
			c-1.9-52.1,45.5-66.9,45.5-66.9s6.5,0.5,10.6,0.7c7.7,0.3,15.8,0,15.8,0L175.6,174.1"/>
		<path fill="#E8A255" stroke="#415E7D" stroke-width="2.8453" stroke-miterlimit="10" d="M157.9,88.2h-16.5c-5.4,0-10.1-3.7-11.2-9
			l-7.7-34.6c-1.6-7.2,3.9-14.1,11.3-14.1h33.2c7.4,0,12.8,6.9,11,14.1l-8.4,34.5C168.2,84.5,163.4,88.2,157.9,88.2z"/>
		<circle fill="#415E7D" cx="134.5" cy="47.8" r="1.6"/>
		<circle fill="#415E7D" cx="144.5" cy="61" r="1.6"/>
		<circle fill="#415E7D" cx="152.5" cy="50.9" r="1.6"/>
		<circle fill="#415E7D" cx="163.6" cy="70.8" r="1.6"/>
		<circle fill="#415E7D" cx="167.1" cy="37.5" r="1.6"/>
		<circle fill="#415E7D" cx="141.3" cy="76.8" r="1.6"/>
		<rect x="123.1" y="81" fill="none" stroke="#415E7D" stroke-width="2.8453" stroke-miterlimit="10" width="52.3" height="93.8"/>
		<circle fill="#E05F5F" stroke="#891218" stroke-width="1.5807" stroke-miterlimit="10" cx="194.7" cy="238.5" r="4.8"/>
		<circle fill="#E05F5F" stroke="#891218" stroke-width="1.5807" stroke-miterlimit="10" cx="108.6" cy="233.7" r="4.8"/>
		<circle fill="#E05F5F" stroke="#891218" stroke-width="2.7909" stroke-miterlimit="10" cx="126.8" cy="286.7" r="8.4"/>
		<circle fill="#E05F5F" stroke="#891218" stroke-width="0.7903" stroke-miterlimit="10" cx="176.3" cy="245.6" r="2.4"/>
		<circle fill="#E05F5F" stroke="#891218" stroke-width="1.5807" stroke-miterlimit="10" cx="181.4" cy="268.6" r="6"/>
		
			<line fill="none" stroke="#415E7D" stroke-width="2.213" stroke-linecap="round" stroke-miterlimit="10" x1="160.8" y1="211.2" x2="167.8" y2="195.5"/>
		
			<line fill="none" stroke="#415E7D" stroke-width="2.0423" stroke-linecap="round" stroke-miterlimit="10" x1="116.2" y1="188" x2="123.2" y2="174.6"/>
		
			<line fill="none" stroke="#415E7D" stroke-width="2.0423" stroke-linecap="round" stroke-miterlimit="10" x1="121.6" y1="188" x2="128.6" y2="174.6"/>
		
			<line fill="none" stroke="#415E7D" stroke-width="3" stroke-linecap="round" stroke-miterlimit="10" x1="32.4" y1="315.3" x2="229.8" y2="315"/>
		<path fill="none" stroke="#415E7D" stroke-width="2.8453" stroke-linecap="round" stroke-miterlimit="10" d="M244.8,313.3"/>
		
			<ellipse transform="matrix(0.5 -0.866 0.866 0.5 -139.1476 203.9539)" opacity="0.43" fill="#FFFFFF" cx="107.1" cy="222.5" rx="26.8" ry="16.6"/>
		<circle opacity="0.52" fill="#FFFFFF" cx="99.8" cy="262.6" r="7.3"/>
		<path opacity="0.75" fill="#EEEFF4" d="M181.1,81h-64.9c-4.2,0-7.6-3.4-7.6-7.6v0c0-4.2,3.4-7.6,7.6-7.6h64.9
			c4.2,0,7.6,3.4,7.6,7.6v0C188.6,77.6,185.2,81,181.1,81z"/>
		<path fill="none" stroke="#415E7D" stroke-width="2.8453" stroke-miterlimit="10" d="M182.3,81h-66.2c-4.2,0-7.6-3.4-7.6-7.6v0
			c0-4.2,3.4-7.6,7.6-7.6h66.2c4.2,0,7.6,3.4,7.6,7.6v0C189.9,77.6,186.5,81,182.3,81z"/>
		<path opacity="0.12" fill="#FFFFFF" d="M171.6,223l27.4-10.8c0,0,11.4,50.7-4.4,66.2l-41.5-9.7c0,0,20.1-22.3,22.2-31.7
			C182.2,206.5,171.6,223,171.6,223z"/>
		
			<line fill="none" stroke="#415E7D" stroke-width="3" stroke-linecap="round" stroke-miterlimit="10" x1="240.1" y1="315.2" x2="290.1" y2="315.1"/>
		
			<line fill="none" stroke="#415E7D" stroke-width="3" stroke-linecap="round" stroke-miterlimit="10" x1="306.1" y1="315.1" x2="326.1" y2="315.1"/>
		
			<line fill="none" stroke="#415E7D" stroke-width="3" stroke-linecap="round" stroke-miterlimit="10" x1="346.1" y1="315.1" x2="346.1" y2="315.1"/>
	</g>
	<path fill="#FFFFFF" d="M146,259.8"/>
	<path opacity="0.63" fill="#FFFFFF" d="M88.7,257.2c0-1.7-1.3-4.1-3.2-4.1c1.9,0,3.2-2.4,3.2-4.1c0,1.7,1.3,4.1,3.2,4.1
		C90,253.1,88.7,255.5,88.7,257.2z"/>
	<path opacity="0.63" fill="#FFFFFF" d="M213.2,257.9c-4.1,0-6.9-5.1-6.9-8.7c0,3.6-2.8,8.7-6.9,8.7c4.1,0,6.9,5.1,6.9,8.7
		C206.3,262.9,209.1,257.9,213.2,257.9z"/>
	<path opacity="0.83" fill="#FFFFFF" d="M105.8,236.3c-3.3,0-5.5-4.1-5.5-7c0,2.9-2.2,7-5.5,7c3.3,0,5.5,4.1,5.5,7
		C100.3,240.3,102.5,236.3,105.8,236.3z"/>
	<path opacity="0.54" fill="#D3DDE2" d="M228,155.2c0,0,3.7-4.2,4.4-2c1,3.2,2.3,14.5-1.9,18c-2.1,1.7-5.3-0.2-5.3-0.2
		S220.5,158.6,228,155.2z"/>
	<path opacity="0.57" fill="#D3DDE2" d="M267.9,161.2c0,0-2.6-4.2-3.1-2c-0.7,3.2-1.6,14.5,1.4,18c1.5,1.7,3.8-0.2,3.8-0.2
		S273.2,164.6,267.9,161.2z"/>
	<path opacity="0.32" fill="#D3DDE2" d="M237.6,99.9c2.1,0,16.8-1.9,19.5,7.9c0,0,18.7-5.8,24.8,1.2c0.4,0.5,0.1,1.6-0.6,1.6
		c-6.9,0.1-16-5.7-24.2,1.3c0,0-11.6-12.2-19.6-8.4"/>
	<path opacity="0.33" fill="#D3DDE2" d="M295.3,82.8c0,0,14.7,26.2-5,57.1C290.3,139.9,322,114.4,295.3,82.8z"/>
	<polyline opacity="0.4" fill="none" stroke="#D3DDE2" stroke-linecap="round" stroke-miterlimit="10" points="230,81 237.9,85 
		243.6,81 250.9,83 258.8,78.4 	"/>
	
		<line opacity="0.62" fill="none" stroke="#D3DDE2" stroke-linecap="round" stroke-miterlimit="10" x1="243.6" y1="81" x2="247.8" y2="78.4"/>
	
		<line opacity="0.62" fill="none" stroke="#D3DDE2" stroke-linecap="round" stroke-miterlimit="10" x1="233.4" y1="82.8" x2="230" y2="86.4"/>
</g>
</svg>
