<?xml version="1.0" encoding="utf-8"?>
<!-- Generator: Adobe Illustrator 18.0.0, SVG Export Plug-In . SVG Version: 6.00 Build 0)  -->
<!DOCTYPE svg PUBLIC "-//W3C//DTD SVG 1.1//EN" "http://www.w3.org/Graphics/SVG/1.1/DTD/svg11.dtd">
<svg version="1.1" id="Layer_1" xmlns="http://www.w3.org/2000/svg" xmlns:xlink="http://www.w3.org/1999/xlink" x="0px" y="0px"
	 viewBox="0 0 6.8 6.8" enable-background="new 0 0 6.8 6.8" xml:space="preserve">
<path fill="#111111" d="M4.5,6.1C4.2,6.2,3.8,6.3,3.4,6.3c-0.7,0-1.3-0.3-1.9-0.7c0,0,0,0,0.1,0c0.6-1.2,2.3-1.8,2.3-1.8
	c0,0,0,0,0,0C4.3,4.9,4.5,5.8,4.5,6.1z M3.7,3.4c0,0-0.1,0-0.1,0c0,0-1.6,0.5-2.4,1.9l0,0C0.8,4.8,0.5,4.2,0.5,3.4c0,0,0-0.1,0-0.1
	c0,0,1.5,0,3-0.4C3.6,3.1,3.7,3.2,3.7,3.4z M3.2,2.5C1.9,2.8,0.6,2.8,0.6,2.8c0.2-0.9,0.8-1.7,1.6-2C2.2,0.8,2.7,1.6,3.2,2.5z
	 M6.3,3.9C6.2,4.7,5.7,5.4,5,5.8c0-0.2-0.2-1-0.6-2.1C5.4,3.6,6.2,3.9,6.3,3.9z M2.7,0.6C2.7,0.6,2.7,0.6,2.7,0.6
	C2.7,0.6,2.7,0.6,2.7,0.6z M5.3,1.2c0,0-0.4,0.6-1.5,1.1c-0.5-0.9-1-1.6-1.1-1.7c0.2-0.1,0.5-0.1,0.7-0.1C4.1,0.5,4.8,0.8,5.3,1.2z
	 M6.3,3.4c0,0-1-0.2-2-0.1c0,0,0-0.1-0.1-0.2C4.2,3,4.1,2.8,4,2.7c1.1-0.5,1.6-1.1,1.6-1.2C6.1,2.1,6.3,2.7,6.3,3.4z M6.8,3.4
	C6.8,1.5,5.3,0,3.4,0C1.5,0,0,1.5,0,3.4c0,1.9,1.5,3.4,3.4,3.4C5.3,6.8,6.8,5.3,6.8,3.4z"/>
</svg>
