<?xml version="1.0" encoding="utf-8"?>
<!-- Generator: Adobe Illustrator 18.1.1, SVG Export Plug-In . SVG Version: 6.00 Build 0)  -->
<!DOCTYPE svg PUBLIC "-//W3C//DTD SVG 1.1//EN" "http://www.w3.org/Graphics/SVG/1.1/DTD/svg11.dtd">
<svg version="1.1" id="Layer_1" xmlns="http://www.w3.org/2000/svg" xmlns:xlink="http://www.w3.org/1999/xlink" x="0px" y="0px"
	 viewBox="0 0 328.8 378.5" enable-background="new 0 0 328.8 378.5" xml:space="preserve">
<g id="xfDj35.tif">
	<g>
		<path d="M328.8,189.4c0,30.7,0,61.5,0,92.2c0,1.9-0.6,2.8-2.2,3.7c-53.5,30.8-106.9,61.6-160.3,92.5c-1.4,0.8-2.3,0.9-3.8,0.1
			C109,346.9,55.4,316,1.7,285.1c-1.3-0.7-1.7-1.5-1.7-3c0-61.9,0-123.9,0-185.8c0-1.5,0.5-2.2,1.7-3C55.4,62.5,109,31.5,162.6,0.6
			c1.4-0.8,2.4-0.7,3.8,0.1c53.5,30.9,107,61.8,160.5,92.6c1.5,0.8,2,1.7,2,3.4C328.8,127.6,328.8,158.5,328.8,189.4z M21.8,189.2
			c0,26.8,0,53.6,0,80.4c0,1.5,0.5,2.2,1.7,2.9c46.4,26.7,92.8,53.5,139.2,80.3c1.2,0.7,2.1,0.8,3.4,0
			c46.4-26.8,92.9-53.6,139.4-80.4c1.2-0.7,1.6-1.5,1.6-2.8c0-53.6,0-107.2,0-160.8c0-1.5-0.5-2.2-1.7-2.9
			c-46.4-26.7-92.7-53.5-139-80.2c-1.4-0.8-2.4-0.8-3.8,0c-46.3,26.8-92.7,53.5-139,80.2c-1.4,0.8-1.8,1.6-1.7,3.1
			C21.8,135.8,21.8,162.5,21.8,189.2z"/>
		<path d="M53.8,189.2c0-20.6,0-41.2,0-61.8c0-1.6,0.5-2.3,1.8-3.1c35.7-20.6,71.4-41.1,107.1-61.8c1.2-0.7,2.1-0.8,3.4-0.1
			c35.7,20.7,71.5,41.3,107.2,61.9c1.2,0.7,1.7,1.5,1.7,2.9c0,41.3,0,82.5,0,123.8c0,1.5-0.5,2.2-1.7,2.9
			c-35.8,20.6-71.5,41.2-107.2,61.9c-1.3,0.7-2.2,0.7-3.4-0.1c-35.7-20.6-71.4-41.2-107.1-61.8c-1.3-0.8-1.8-1.5-1.8-3.1
			C53.9,230.4,53.8,209.8,53.8,189.2z M253.3,189.3c0-16.4,0-32.8,0-49.2c0-1.5-0.4-2.4-1.8-3.1c-28.5-16.4-57-32.8-85.4-49.3
			c-1.3-0.7-2.1-0.7-3.4,0c-28.5,16.5-56.9,32.9-85.4,49.3c-1.4,0.8-1.8,1.7-1.8,3.2c0,32.8,0,65.6,0,98.4c0,1.4,0.4,2.3,1.7,3
			c28.6,16.4,57.1,32.9,85.6,49.4c1.2,0.7,2,0.7,3.2,0c28.5-16.5,56.9-32.9,85.4-49.3c1.4-0.8,1.8-1.7,1.8-3.3
			C253.3,222,253.3,205.6,253.3,189.3z"/>
		<path d="M116.2,182.1c13.6,8.8,28.2,5.2,36.7-3.1c8.2-8,12.5-22.7,3.9-36.7c14.4-3.1,36.2,2.9,48.1,22
			c11.8,18.9,9.2,43.2-6.3,59.3c-15.2,15.8-39.6,19.3-58.7,8.4C119.8,220.6,112.9,198.5,116.2,182.1z"/>
	</g>
</g>
</svg>
