<svg xmlns="http://www.w3.org/2000/svg" version="1.1" x="0" y="0" viewBox="1549.3 1540.8 1131.6 1110.5" enable-background="new 1549.3 1540.8 1131.6 1110.5" xml:space="preserve"><path fill="#111111" d="M2569.1 1865.9c0 10.7 0 21.4 0 28.6 0 307.4-232.3 661.2-661.2 661.2 -132.2 0-253.8-39.3-357.4-103.7 17.9 3.6 35.7 3.6 57.2 3.6 107.2 0 207.3-35.7 289.5-100.1 -103.7-3.6-185.9-67.9-218-160.8 14.3 3.6 28.6 3.6 42.9 3.6 21.4 0 42.9-3.6 60.8-7.1 -107.2-21.4-185.9-114.4-185.9-228.8v-3.6c32.2 17.9 67.9 28.6 103.7 28.6 -57.2-39.3-100.1-110.8-100.1-189.4 0-42.9 10.7-82.2 32.2-118 114.4 139.4 285.9 232.3 479 243.1 -3.6-17.9-7.1-35.7-7.1-53.6 0-128.7 103.7-232.3 232.3-232.3 67.9 0 128.7 28.6 168 71.5 53.6-10.7 103.7-28.6 146.5-57.2 -17.9 53.6-53.6 100.1-103.7 128.7 46.5-3.6 92.9-17.9 132.2-35.7C2654.8 1790.8 2615.5 1833.7 2569.1 1865.9z"/></svg>